<?xml version="1.0" encoding="iso-8859-1"?>
<!-- Uploaded to: SVG Repo, www.svgrepo.com, Generator: SVG Repo Mixer Tools -->
<svg height="800px" width="800px" version="1.1" id="Layer_1" xmlns="http://www.w3.org/2000/svg" xmlns:xlink="http://www.w3.org/1999/xlink" 
	 viewBox="0 0 512 512" xml:space="preserve">
<g>
	<ellipse style="fill:#1EB415;" cx="82.547" cy="211.477" rx="72.098" ry="132.179"/>
	<ellipse style="fill:#1EB415;" cx="429.452" cy="211.477" rx="72.098" ry="132.179"/>
	<ellipse style="fill:#1EB415;" cx="255.999" cy="211.477" rx="72.098" ry="132.179"/>
	<path style="fill:#1EB415;" d="M354.905,392.971c-10.887,0-20.751,4.382-27.93,11.481c-0.114-0.003-0.229-0.021-0.345-0.021
		c-15.614,0-28.273,12.662-28.273,28.273h96.278C394.636,410.763,376.846,392.971,354.905,392.971z"/>
</g>
<path style="fill:#90DE3F;" d="M165.748,392.971c-10.887,0-20.751,4.382-27.93,11.481c-0.114-0.003-0.229-0.021-0.345-0.021
	c-15.614,0-28.273,12.662-28.273,28.273h96.278C205.478,410.763,187.688,392.971,165.748,392.971z"/>
<path style="fill:#1EB415;" d="M206.607,383.436c-11.658,0-22.362,4.057-30.798,10.825c17.069,4.455,29.668,19.978,29.668,38.444
	h50.397C255.876,405.497,233.821,383.436,206.607,383.436z"/>
<path d="M445.194,422.256h-5.291v-69.24C481.083,344.398,512,285.327,512,211.475c0-79.978-36.259-142.628-82.547-142.628
	s-82.547,62.65-82.547,142.628c0,73.852,30.917,132.923,72.098,141.542v69.24h-15.021c-4.821-22.671-24.991-39.733-49.078-39.733
	c-11.875,0-23.14,4.111-32.149,11.653c-16.01,1.598-29.172,12.992-33.407,28.081h-22.9v-69.24
	c41.18-8.618,72.098-67.689,72.098-141.542c0-79.978-36.259-142.628-82.547-142.628s-82.547,62.65-82.547,142.628
	c0,73.852,30.917,132.923,72.098,141.542v34.472c-10.465-9.026-24.072-14.502-38.943-14.502c-11.827,0-23.449,3.563-33.234,10.115
	c-2.487-0.38-5.033-0.579-7.627-0.579c-11.875,0-23.14,4.111-32.149,11.653c-16.011,1.598-29.172,12.992-33.407,28.081h-7.194
	v-69.24c41.18-8.618,72.098-67.689,72.098-141.542c0-79.978-36.259-142.628-82.547-142.628S0,131.495,0,211.474
	c0,73.852,30.917,132.923,72.098,141.542v69.24H60.952c-5.77,0-10.449,4.679-10.449,10.449c0,5.771,4.679,10.449,10.449,10.449
	h384.242c5.77,0,10.449-4.678,10.449-10.449C455.642,426.934,450.963,422.256,445.194,422.256z M367.804,211.475
	c0-65.984,28.231-121.73,61.649-121.73c33.417,0,61.649,55.746,61.649,121.73c0,58.972-22.551,109.761-51.2,119.89v-86.953
	l36.596-36.595c4.08-4.08,4.08-10.696,0-14.778c-4.08-4.079-10.694-4.079-14.778,0l-21.819,21.818v-32.928
	c0-5.77-4.679-10.449-10.449-10.449c-5.771,0-10.449,4.679-10.449,10.449v149.436C390.355,321.236,367.804,270.448,367.804,211.475z
	 M20.898,211.475c0-65.984,28.232-121.73,61.649-121.73s61.649,55.746,61.649,121.73c0,58.972-22.551,109.761-51.2,119.89v-86.953
	l36.596-36.595c4.08-4.08,4.08-10.696,0-14.778c-4.08-4.079-10.695-4.079-14.778,0l-21.818,21.82V181.93
	c0-5.77-4.679-10.449-10.449-10.449c-5.77,0-10.449,4.679-10.449,10.449v149.436C43.449,321.236,20.898,270.448,20.898,211.475z
	 M326.35,414.884c0.115,0.006,0.231,0.013,0.346,0.015c2.858,0.067,5.602-1.012,7.627-3.016c5.518-5.457,12.828-8.463,20.582-8.463
	c12.466,0,23.131,7.835,27.348,18.835h-70.03C315.414,417.868,320.543,414.974,326.35,414.884z M194.351,211.475
	c0-65.984,28.232-121.73,61.649-121.73s61.649,55.746,61.649,121.73c0,58.972-22.551,109.761-51.2,119.89v-86.953l36.596-36.595
	c4.08-4.08,4.08-10.696,0-14.778c-4.079-4.079-10.693-4.079-14.778,0l-21.818,21.82V181.93c0-5.77-4.678-10.449-10.449-10.449
	s-10.449,4.679-10.449,10.449v149.436C216.902,321.236,194.351,270.448,194.351,211.475z M206.607,393.885
	c17.785,0,32.805,12.027,37.379,28.371h-29.162c-2.319-10.901-8.188-20.496-16.334-27.53
	C201.128,394.17,203.842,393.885,206.607,393.885z M137.193,414.884c0.115,0.006,0.231,0.013,0.346,0.015
	c2.873,0.067,5.602-1.012,7.627-3.016c5.518-5.457,12.828-8.463,20.582-8.463c12.467,0,23.131,7.835,27.348,18.835h-70.03
	C126.257,417.868,131.384,414.974,137.193,414.884z"/>
<path d="M25.425,422.256H10.449C4.678,422.256,0,426.936,0,432.705c0,5.771,4.678,10.449,10.449,10.449h14.976
	c5.77,0,10.449-4.678,10.449-10.449C35.874,426.934,31.195,422.256,25.425,422.256z"/>
<path d="M501.55,422.256h-20.83c-5.771,0-10.449,4.679-10.449,10.449c0,5.771,4.678,10.449,10.449,10.449h20.83
	c5.77,0,10.449-4.678,10.449-10.449C511.999,426.934,507.32,422.256,501.55,422.256z"/>
<path d="M231.614,129.156c-5.431-1.944-11.414,0.882-13.359,6.314c-2.411,6.729-4.507,13.853-6.234,21.174
	c-1.325,5.616,2.156,11.244,7.772,12.567c0.806,0.191,1.612,0.282,2.407,0.282c4.735,0,9.027-3.243,10.162-8.053
	c1.546-6.561,3.42-12.928,5.566-18.922C239.874,137.084,237.047,131.103,231.614,129.156z"/>
<path d="M226.744,211.475c0-5.409,0.188-10.854,0.559-16.18c0.401-5.757-3.94-10.749-9.697-11.15
	c-5.777-0.408-10.749,3.94-11.15,9.697c-0.405,5.809-0.61,11.741-0.61,17.634c0,24.528,3.566,48.671,10.315,69.821
	c1.417,4.441,5.525,7.276,9.952,7.276c1.053,0,2.123-0.161,3.18-0.498c5.497-1.753,8.533-7.633,6.777-13.13
	C229.969,255.821,226.744,233.874,226.744,211.475z"/>
<path d="M58.161,129.156c-5.433-1.944-11.413,0.882-13.359,6.314c-2.411,6.729-4.507,13.853-6.234,21.174
	c-1.324,5.616,2.157,11.244,7.773,12.567c0.806,0.191,1.612,0.282,2.407,0.282c4.735,0,9.027-3.243,10.162-8.053
	c1.546-6.561,3.419-12.928,5.566-18.922C66.421,137.084,63.594,131.103,58.161,129.156z"/>
<path d="M53.292,211.475c0-5.409,0.188-10.854,0.559-16.18c0.401-5.757-3.941-10.749-9.697-11.15
	c-5.782-0.408-10.749,3.94-11.15,9.697c-0.405,5.809-0.61,11.741-0.61,17.634c0,24.528,3.566,48.671,10.315,69.821
	c1.416,4.441,5.525,7.276,9.951,7.276c1.053,0,2.123-0.161,3.18-0.498c5.497-1.753,8.533-7.633,6.777-13.13
	C56.516,255.821,53.292,233.874,53.292,211.475z"/>
<path d="M405.067,129.156c-5.433-1.944-11.413,0.882-13.359,6.314c-2.411,6.729-4.507,13.853-6.234,21.174
	c-1.325,5.616,2.156,11.244,7.772,12.567c0.807,0.191,1.612,0.282,2.407,0.282c4.735,0,9.027-3.243,10.162-8.053
	c1.546-6.561,3.419-12.928,5.566-18.922C413.327,137.084,410.501,131.103,405.067,129.156z"/>
<path d="M400.198,211.475c0-5.409,0.188-10.854,0.559-16.18c0.401-5.757-3.94-10.749-9.697-11.15
	c-5.796-0.408-10.75,3.94-11.15,9.697c-0.405,5.809-0.61,11.741-0.61,17.634c0,24.528,3.566,48.671,10.315,69.821
	c1.416,4.441,5.525,7.276,9.951,7.276c1.053,0,2.123-0.161,3.18-0.498c5.497-1.753,8.533-7.633,6.777-13.13
	C403.423,255.821,400.198,233.874,400.198,211.475z"/>
</svg>